# xmcd CD database file
#
# Track frame offsets:
#	150
#	32564
#	65759
#	94295
#	130189
#	152872
#	186041
#	213213
#	270495
#	307215
#
# Disc length: 4753 seconds
#
# Revision: 0
# Processed by: cddbd v1.5.2PL0 Copyright (c) Steve Scherf et al.
# Submitted via: CDex 1.51
#
DISCID=8e128f0a
DTITLE=Puerto Rico Heineken JazzFest - Puerto Rico Heineken JazzFest 2006
DYEAR=2006
DGENRE=Jazz
TTITLE0=El Shing-a-ling
TTITLE1=No me Toques
TTITLE2=Someone else is steppin'n
TTITLE3=Coqui. Coqui
TTITLE4=Para Los Rumberos
TTITLE5=Cheek to cheek
TTITLE6=So in love
TTITLE7=Willow weep for me
TTITLE8=Bemsha Swing
TTITLE9=El Kiri
EXTD=YEAR: 2006
EXTT0=
EXTT1=
EXTT2=
EXTT3=
EXTT4=
EXTT5=
EXTT6=
EXTT7=
EXTT8=
EXTT9=
PLAYORDER=
